<svg xmlns="http://www.w3.org/2000/svg" viewBox="0 0 800 450" width="800" height="450">
  <rect width="800" height="450" fill="#0f0f0f"/>
  <!-- Top bar -->
  <rect width="800" height="40" fill="#1a1a1a"/>
  <circle cx="20" cy="20" r="6" fill="#333"/>
  <circle cx="40" cy="20" r="6" fill="#333"/>
  <circle cx="60" cy="20" r="6" fill="#333"/>
  <text x="400" y="26" font-family="monospace" font-size="12" fill="#555" text-anchor="middle">expense_tracker.py</text>

  <!-- Summary cards row -->
  <rect x="20" y="52" width="178" height="76" rx="3" fill="#141414" stroke="#1e1e1e" stroke-width="1"/>
  <text x="36" y="76" font-family="monospace" font-size="10" fill="#555">Total Spent</text>
  <text x="36" y="104" font-family="monospace" font-size="24" fill="#e0e0e0" font-weight="bold">$847</text>
  <text x="36" y="120" font-family="monospace" font-size="10" fill="#ef4444">▲ 12% this month</text>

  <rect x="208" y="52" width="178" height="76" rx="3" fill="#141414" stroke="#1e1e1e" stroke-width="1"/>
  <text x="224" y="76" font-family="monospace" font-size="10" fill="#555">Budget</text>
  <text x="224" y="104" font-family="monospace" font-size="24" fill="#e0e0e0" font-weight="bold">$1,000</text>
  <text x="224" y="120" font-family="monospace" font-size="10" fill="#4ade80">$153 remaining</text>

  <rect x="396" y="52" width="178" height="76" rx="3" fill="#141414" stroke="#1e1e1e" stroke-width="1"/>
  <text x="412" y="76" font-family="monospace" font-size="10" fill="#555">Transactions</text>
  <text x="412" y="104" font-family="monospace" font-size="24" fill="#e0e0e0" font-weight="bold">24</text>
  <text x="412" y="120" font-family="monospace" font-size="10" fill="#555">this month</text>

  <rect x="584" y="52" width="196" height="76" rx="3" fill="#141414" stroke="#1e1e1e" stroke-width="1"/>
  <text x="600" y="76" font-family="monospace" font-size="10" fill="#555">Largest Expense</text>
  <text x="600" y="104" font-family="monospace" font-size="24" fill="#e0e0e0" font-weight="bold">$220</text>
  <text x="600" y="120" font-family="monospace" font-size="10" fill="#555">Rent / Housing</text>

  <!-- Bar chart -->
  <rect x="20" y="140" width="440" height="294" rx="3" fill="#141414" stroke="#1e1e1e" stroke-width="1"/>
  <text x="36" y="164" font-family="monospace" font-size="11" fill="#aaa" font-weight="bold">Monthly Spending</text>
  <text x="448" y="164" font-family="monospace" font-size="10" fill="#555" text-anchor="end">Jan 2025</text>

  <!-- Chart grid -->
  <line x1="36" y1="380" x2="444" y2="380" stroke="#1e1e1e" stroke-width="1"/>
  <line x1="36" y1="336" x2="444" y2="336" stroke="#1e1e1e" stroke-width="1"/>
  <line x1="36" y1="292" x2="444" y2="292" stroke="#1e1e1e" stroke-width="1"/>
  <line x1="36" y1="248" x2="444" y2="248" stroke="#1e1e1e" stroke-width="1"/>
  <line x1="36" y1="204" x2="444" y2="204" stroke="#1e1e1e" stroke-width="1"/>

  <text x="32" y="383" font-family="monospace" font-size="9" fill="#333" text-anchor="end">0</text>
  <text x="32" y="339" font-family="monospace" font-size="9" fill="#333" text-anchor="end">50</text>
  <text x="32" y="295" font-family="monospace" font-size="9" fill="#333" text-anchor="end">100</text>
  <text x="32" y="251" font-family="monospace" font-size="9" fill="#333" text-anchor="end">150</text>
  <text x="32" y="207" font-family="monospace" font-size="9" fill="#333" text-anchor="end">200</text>

  <!-- Bars -->
  <!-- Food: $145 -->
  <rect x="50" y="248" width="44" height="132" rx="2" fill="#4ade80" opacity="0.75"/>
  <text x="72" y="395" font-family="monospace" font-size="9" fill="#555" text-anchor="middle">Food</text>
  <text x="72" y="242" font-family="monospace" font-size="9" fill="#4ade80" text-anchor="middle">$145</text>

  <!-- Transport: $88 -->
  <rect x="114" y="300" width="44" height="80" rx="2" fill="#818cf8" opacity="0.75"/>
  <text x="136" y="395" font-family="monospace" font-size="9" fill="#555" text-anchor="middle">Transport</text>
  <text x="136" y="294" font-family="monospace" font-size="9" fill="#818cf8" text-anchor="middle">$88</text>

  <!-- Entertainment: $72 -->
  <rect x="178" y="315" width="44" height="65" rx="2" fill="#f472b6" opacity="0.75"/>
  <text x="200" y="395" font-family="monospace" font-size="9" fill="#555" text-anchor="middle">Entertain</text>
  <text x="200" y="309" font-family="monospace" font-size="9" fill="#f472b6" text-anchor="middle">$72</text>

  <!-- Bills: $220 -->
  <rect x="242" y="204" width="44" height="176" rx="2" fill="#fb923c" opacity="0.75"/>
  <text x="264" y="395" font-family="monospace" font-size="9" fill="#555" text-anchor="middle">Bills</text>
  <text x="264" y="198" font-family="monospace" font-size="9" fill="#fb923c" text-anchor="middle">$220</text>

  <!-- Health: $58 -->
  <rect x="306" y="327" width="44" height="53" rx="2" fill="#34d399" opacity="0.75"/>
  <text x="328" y="395" font-family="monospace" font-size="9" fill="#555" text-anchor="middle">Health</text>
  <text x="328" y="321" font-family="monospace" font-size="9" fill="#34d399" text-anchor="middle">$58</text>

  <!-- Other: $264 -->
  <rect x="370" y="187" width="44" height="193" rx="2" fill="#555" opacity="0.75"/>
  <text x="392" y="395" font-family="monospace" font-size="9" fill="#555" text-anchor="middle">Other</text>
  <text x="392" y="181" font-family="monospace" font-size="9" fill="#888" text-anchor="middle">$264</text>

  <!-- Category breakdown + recent transactions -->
  <rect x="472" y="140" width="308" height="294" rx="3" fill="#141414" stroke="#1e1e1e" stroke-width="1"/>
  <text x="488" y="164" font-family="monospace" font-size="11" fill="#aaa" font-weight="bold">Recent Transactions</text>

  <!-- Transaction rows -->
  <line x1="488" y1="172" x2="764" y2="172" stroke="#1e1e1e" stroke-width="1"/>

  <rect x="488" y="180" width="12" height="12" rx="2" fill="#4ade80" opacity="0.6"/>
  <text x="508" y="191" font-family="monospace" font-size="11" fill="#ccc">Grocery Store</text>
  <text x="764" y="191" font-family="monospace" font-size="11" fill="#ef4444" text-anchor="end">-$48.20</text>
  <text x="508" y="205" font-family="monospace" font-size="9" fill="#444">Food · Jan 15</text>

  <line x1="488" y1="214" x2="764" y2="214" stroke="#1e1e1e" stroke-width="1"/>

  <rect x="488" y="222" width="12" height="12" rx="2" fill="#818cf8" opacity="0.6"/>
  <text x="508" y="233" font-family="monospace" font-size="11" fill="#ccc">Bus Pass</text>
  <text x="764" y="233" font-family="monospace" font-size="11" fill="#ef4444" text-anchor="end">-$35.00</text>
  <text x="508" y="247" font-family="monospace" font-size="9" fill="#444">Transport · Jan 14</text>

  <line x1="488" y1="256" x2="764" y2="256" stroke="#1e1e1e" stroke-width="1"/>

  <rect x="488" y="264" width="12" height="12" rx="2" fill="#fb923c" opacity="0.6"/>
  <text x="508" y="275" font-family="monospace" font-size="11" fill="#ccc">Electric Bill</text>
  <text x="764" y="275" font-family="monospace" font-size="11" fill="#ef4444" text-anchor="end">-$92.40</text>
  <text x="508" y="289" font-family="monospace" font-size="9" fill="#444">Bills · Jan 13</text>

  <line x1="488" y1="298" x2="764" y2="298" stroke="#1e1e1e" stroke-width="1"/>

  <rect x="488" y="306" width="12" height="12" rx="2" fill="#f472b6" opacity="0.6"/>
  <text x="508" y="317" font-family="monospace" font-size="11" fill="#ccc">Cinema</text>
  <text x="764" y="317" font-family="monospace" font-size="11" fill="#ef4444" text-anchor="end">-$18.50</text>
  <text x="508" y="331" font-family="monospace" font-size="9" fill="#444">Entertainment · Jan 12</text>

  <line x1="488" y1="340" x2="764" y2="340" stroke="#1e1e1e" stroke-width="1"/>

  <rect x="488" y="348" width="12" height="12" rx="2" fill="#34d399" opacity="0.6"/>
  <text x="508" y="359" font-family="monospace" font-size="11" fill="#ccc">Pharmacy</text>
  <text x="764" y="359" font-family="monospace" font-size="11" fill="#ef4444" text-anchor="end">-$22.00</text>
  <text x="508" y="373" font-family="monospace" font-size="9" fill="#444">Health · Jan 11</text>

  <line x1="488" y1="382" x2="764" y2="382" stroke="#1e1e1e" stroke-width="1"/>

  <!-- Budget progress -->
  <text x="488" y="404" font-family="monospace" font-size="10" fill="#555">Budget used</text>
  <text x="764" y="404" font-family="monospace" font-size="10" fill="#aaa" text-anchor="end">84.7%</text>
  <rect x="488" y="410" width="276" height="6" rx="3" fill="#222"/>
  <rect x="488" y="410" width="233" height="6" rx="3" fill="#4ade80" opacity="0.5"/>
  <rect x="721" y="410" width="43" height="6" rx="1" fill="#ef4444" opacity="0.4"/>
</svg>
