<svg xmlns="http://www.w3.org/2000/svg" viewBox="0 0 1200 700" width="1200" height="700">
  <defs>
    <radialGradient id="smcp-bg" cx="50%" cy="50%" r="50%">
      <stop offset="0%" stop-color="#0e0e1e"/>
      <stop offset="100%" stop-color="#07070f"/>
    </radialGradient>
    <radialGradient id="smcp-center-glow" cx="450" cy="340" r="320" gradientUnits="userSpaceOnUse">
      <stop offset="0%" stop-color="#6366f1" stop-opacity="0.12"/>
      <stop offset="100%" stop-color="#6366f1" stop-opacity="0"/>
    </radialGradient>
    <filter id="smcp-node-glow" x="-100%" y="-100%" width="300%" height="300%">
      <feGaussianBlur stdDeviation="5" result="blur"/>
      <feMerge><feMergeNode in="blur"/><feMergeNode in="SourceGraphic"/></feMerge>
    </filter>
    <filter id="smcp-small-glow" x="-100%" y="-100%" width="300%" height="300%">
      <feGaussianBlur stdDeviation="3" result="blur"/>
      <feMerge><feMergeNode in="blur"/><feMergeNode in="SourceGraphic"/></feMerge>
    </filter>
    <filter id="smcp-edge-glow">
      <feGaussianBlur stdDeviation="1.5" result="blur"/>
      <feMerge><feMergeNode in="blur"/><feMergeNode in="SourceGraphic"/></feMerge>
    </filter>
  </defs>

  <!-- Background -->
  <rect width="1200" height="700" fill="url(#smcp-bg)"/>
  <rect width="1200" height="700" fill="url(#smcp-center-glow)"/>

  <!-- Subtle dot field -->
  <g opacity="0.06">
    <circle cx="60" cy="60" r="1" fill="#6366f1"/>
    <circle cx="180" cy="45" r="0.8" fill="#6366f1"/>
    <circle cx="320" cy="30" r="1" fill="#6366f1"/>
    <circle cx="500" cy="20" r="0.8" fill="#6366f1"/>
    <circle cx="680" cy="35" r="1" fill="#6366f1"/>
    <circle cx="850" cy="22" r="0.8" fill="#6366f1"/>
    <circle cx="1000" cy="40" r="1" fill="#6366f1"/>
    <circle cx="1150" cy="28" r="0.8" fill="#6366f1"/>
    <circle cx="40" cy="200" r="0.8" fill="#8b5cf6"/>
    <circle cx="1160" cy="180" r="1" fill="#8b5cf6"/>
    <circle cx="30" cy="500" r="1" fill="#a855f7"/>
    <circle cx="1170" cy="520" r="0.8" fill="#22d3ee"/>
    <circle cx="100" cy="650" r="0.8" fill="#a855f7"/>
    <circle cx="600" cy="680" r="1" fill="#6366f1"/>
    <circle cx="1100" cy="660" r="0.8" fill="#22d3ee"/>
  </g>

  <!-- Title -->
  <text x="600" y="26" font-family="monospace" font-size="8.5" fill="#1e1e40"
        text-anchor="middle" letter-spacing="3">STUDENTVUE MCP SERVER  ·  19 TOOLS  ·  TypeScript  ·  Node.js 20  ·  MCP Protocol</text>

  <!-- ══════════════════════════════════════════
       EDGES — drawn behind all nodes
  ══════════════════════════════════════════ -->

  <!-- Claude ↔ McpServer (main protocol edge) -->
  <line x1="122" y1="340" x2="412" y2="340" stroke="#6366f1" stroke-width="1.8" stroke-opacity="0.5" filter="url(#smcp-edge-glow)"/>

  <!-- Protocol intermediate node edges -->
  <line x1="122" y1="340" x2="228" y2="340" stroke="#6366f1" stroke-width="2" stroke-opacity="0.7"/>
  <line x1="254" y1="340" x2="412" y2="340" stroke="#6366f1" stroke-width="2" stroke-opacity="0.7"/>

  <!-- McpServer ↔ Grade Analysis category -->
  <line x1="430" y1="302" x2="365" y2="160" stroke="#6366f1" stroke-width="1.4" stroke-opacity="0.45" filter="url(#smcp-edge-glow)"/>

  <!-- McpServer ↔ Academic Info category -->
  <line x1="487" y1="320" x2="565" y2="185" stroke="#7c3aed" stroke-width="1.4" stroke-opacity="0.45" filter="url(#smcp-edge-glow)"/>

  <!-- McpServer ↔ Smart Insights category -->
  <line x1="432" y1="378" x2="378" y2="527" stroke="#a855f7" stroke-width="1.4" stroke-opacity="0.45" filter="url(#smcp-edge-glow)"/>

  <!-- McpServer ↔ StudentVue -->
  <line x1="488" y1="340" x2="764" y2="340" stroke="#22d3ee" stroke-width="1.6" stroke-opacity="0.5" filter="url(#smcp-edge-glow)"/>

  <!-- Grade Analysis ↔ grade tool nodes -->
  <line x1="348" y1="113" x2="265" y2="75" stroke="#6366f1" stroke-width="0.8" stroke-opacity="0.35"/>
  <line x1="352" y1="110" x2="340" y2="55" stroke="#6366f1" stroke-width="0.8" stroke-opacity="0.35"/>
  <line x1="362" y1="108" x2="428" y2="52" stroke="#6366f1" stroke-width="0.8" stroke-opacity="0.35"/>
  <line x1="372" y1="110" x2="495" y2="68" stroke="#6366f1" stroke-width="0.8" stroke-opacity="0.35"/>
  <line x1="378" y1="120" x2="520" y2="130" stroke="#6366f1" stroke-width="0.8" stroke-opacity="0.35"/>
  <line x1="375" y1="132" x2="495" y2="175" stroke="#6366f1" stroke-width="0.8" stroke-opacity="0.35"/>
  <line x1="365" y1="138" x2="440" y2="205" stroke="#6366f1" stroke-width="0.8" stroke-opacity="0.35"/>

  <!-- Academic Info ↔ info tool nodes -->
  <line x1="575" y1="168" x2="615" y2="80" stroke="#7c3aed" stroke-width="0.8" stroke-opacity="0.35"/>
  <line x1="584" y1="167" x2="675" y2="105" stroke="#7c3aed" stroke-width="0.8" stroke-opacity="0.35"/>
  <line x1="590" y1="172" x2="730" y2="148" stroke="#7c3aed" stroke-width="0.8" stroke-opacity="0.35"/>
  <line x1="591" y1="182" x2="745" y2="215" stroke="#7c3aed" stroke-width="0.8" stroke-opacity="0.35"/>
  <line x1="587" y1="192" x2="725" y2="268" stroke="#7c3aed" stroke-width="0.8" stroke-opacity="0.35"/>
  <line x1="578" y1="197" x2="670" y2="300" stroke="#7c3aed" stroke-width="0.8" stroke-opacity="0.35"/>

  <!-- Smart Insights ↔ insight tool nodes -->
  <line x1="342" y1="528" x2="218" y2="498" stroke="#a855f7" stroke-width="0.8" stroke-opacity="0.35"/>
  <line x1="340" y1="537" x2="190" y2="562" stroke="#a855f7" stroke-width="0.8" stroke-opacity="0.35"/>
  <line x1="345" y1="546" x2="210" y2="620" stroke="#a855f7" stroke-width="0.8" stroke-opacity="0.35"/>
  <line x1="357" y1="552" x2="300" y2="650" stroke="#a855f7" stroke-width="0.8" stroke-opacity="0.35"/>
  <line x1="372" y1="553" x2="398" y2="648" stroke="#a855f7" stroke-width="0.8" stroke-opacity="0.35"/>
  <line x1="383" y1="548" x2="455" y2="608" stroke="#a855f7" stroke-width="0.8" stroke-opacity="0.35"/>

  <!-- StudentVue ↔ SOAP -->
  <line x1="808" y1="323" x2="926" y2="264" stroke="#22d3ee" stroke-width="1.2" stroke-opacity="0.45"/>
  <!-- StudentVue ↔ npm package -->
  <line x1="812" y1="356" x2="928" y2="432" stroke="#22d3ee" stroke-width="1" stroke-opacity="0.4"/>
  <!-- StudentVue ↔ .env -->
  <line x1="805" y1="362" x2="970" y2="518" stroke="#22d3ee" stroke-width="0.8" stroke-opacity="0.3"/>
  <!-- SOAP ↔ Synergy -->
  <line x1="955" y1="248" x2="1072" y2="195" stroke="#38bdf8" stroke-width="1.2" stroke-opacity="0.45"/>

  <!-- ══════════════════════════════════════════
       GRADE TOOL NODES (r=8, indigo)
  ══════════════════════════════════════════ -->
  <!-- gradebook -->
  <circle cx="260" cy="74" r="14" fill="#6366f1" opacity="0.06"/>
  <circle cx="260" cy="74" r="8" fill="#0e0e20" stroke="#6366f1" stroke-width="1.3" filter="url(#smcp-small-glow)"/>
  <text x="260" y="62" font-family="monospace" font-size="6" fill="#818cf8" text-anchor="middle">get_gradebook</text>

  <!-- grade_summary -->
  <circle cx="338" cy="52" r="14" fill="#6366f1" opacity="0.06"/>
  <circle cx="338" cy="52" r="8" fill="#0e0e20" stroke="#6366f1" stroke-width="1.3" filter="url(#smcp-small-glow)"/>
  <text x="338" y="40" font-family="monospace" font-size="6" fill="#818cf8" text-anchor="middle">grade_summary</text>

  <!-- grade_details -->
  <circle cx="428" cy="50" r="14" fill="#6366f1" opacity="0.06"/>
  <circle cx="428" cy="50" r="8" fill="#0e0e20" stroke="#6366f1" stroke-width="1.3" filter="url(#smcp-small-glow)"/>
  <text x="428" y="38" font-family="monospace" font-size="6" fill="#818cf8" text-anchor="middle">grade_details</text>

  <!-- grade_needed -->
  <circle cx="498" cy="66" r="14" fill="#6366f1" opacity="0.06"/>
  <circle cx="498" cy="66" r="8" fill="#0e0e20" stroke="#6366f1" stroke-width="1.3" filter="url(#smcp-small-glow)"/>
  <text x="498" y="54" font-family="monospace" font-size="6" fill="#818cf8" text-anchor="middle">grade_needed</text>

  <!-- simulate_grade -->
  <circle cx="523" cy="130" r="14" fill="#6366f1" opacity="0.06"/>
  <circle cx="523" cy="130" r="8" fill="#0e0e20" stroke="#6366f1" stroke-width="1.3" filter="url(#smcp-small-glow)"/>
  <text x="560" y="132" font-family="monospace" font-size="6" fill="#818cf8">simulate_grade</text>

  <!-- low_grades -->
  <circle cx="498" cy="177" r="14" fill="#6366f1" opacity="0.06"/>
  <circle cx="498" cy="177" r="8" fill="#0e0e20" stroke="#6366f1" stroke-width="1.3" filter="url(#smcp-small-glow)"/>
  <text x="535" y="179" font-family="monospace" font-size="6" fill="#818cf8">get_low_grades</text>

  <!-- category_breakdown -->
  <circle cx="440" cy="207" r="14" fill="#6366f1" opacity="0.06"/>
  <circle cx="440" cy="207" r="8" fill="#0e0e20" stroke="#6366f1" stroke-width="1.3" filter="url(#smcp-small-glow)"/>
  <text x="440" y="224" font-family="monospace" font-size="6" fill="#818cf8" text-anchor="middle">category_breakdown</text>

  <!-- ══════════════════════════════════════════
       ACADEMIC INFO TOOL NODES (r=8, violet)
  ══════════════════════════════════════════ -->
  <circle cx="615" cy="78" r="14" fill="#7c3aed" opacity="0.06"/>
  <circle cx="615" cy="78" r="8" fill="#0d0d1a" stroke="#7c3aed" stroke-width="1.3" filter="url(#smcp-small-glow)"/>
  <text x="615" y="66" font-family="monospace" font-size="6" fill="#a78bfa" text-anchor="middle">student_info</text>

  <circle cx="678" cy="103" r="14" fill="#7c3aed" opacity="0.06"/>
  <circle cx="678" cy="103" r="8" fill="#0d0d1a" stroke="#7c3aed" stroke-width="1.3" filter="url(#smcp-small-glow)"/>
  <text x="715" y="105" font-family="monospace" font-size="6" fill="#a78bfa">school_info</text>

  <circle cx="732" cy="148" r="14" fill="#7c3aed" opacity="0.06"/>
  <circle cx="732" cy="148" r="8" fill="#0d0d1a" stroke="#7c3aed" stroke-width="1.3" filter="url(#smcp-small-glow)"/>
  <text x="770" y="150" font-family="monospace" font-size="6" fill="#a78bfa">get_schedule</text>

  <circle cx="748" cy="216" r="14" fill="#7c3aed" opacity="0.06"/>
  <circle cx="748" cy="216" r="8" fill="#0d0d1a" stroke="#7c3aed" stroke-width="1.3" filter="url(#smcp-small-glow)"/>
  <text x="786" y="218" font-family="monospace" font-size="6" fill="#a78bfa">get_calendar</text>

  <circle cx="728" cy="270" r="14" fill="#7c3aed" opacity="0.06"/>
  <circle cx="728" cy="270" r="8" fill="#0d0d1a" stroke="#7c3aed" stroke-width="1.3" filter="url(#smcp-small-glow)"/>
  <text x="766" y="272" font-family="monospace" font-size="6" fill="#a78bfa">get_documents</text>

  <circle cx="672" cy="302" r="14" fill="#7c3aed" opacity="0.06"/>
  <circle cx="672" cy="302" r="8" fill="#0d0d1a" stroke="#7c3aed" stroke-width="1.3" filter="url(#smcp-small-glow)"/>
  <text x="710" y="304" font-family="monospace" font-size="6" fill="#a78bfa">get_report_cards</text>

  <!-- ══════════════════════════════════════════
       SMART INSIGHTS TOOL NODES (r=8, purple)
  ══════════════════════════════════════════ -->
  <circle cx="218" cy="496" r="14" fill="#a855f7" opacity="0.06"/>
  <circle cx="218" cy="496" r="8" fill="#0e0d1a" stroke="#a855f7" stroke-width="1.3" filter="url(#smcp-small-glow)"/>
  <text x="218" y="484" font-family="monospace" font-size="6" fill="#c084fc" text-anchor="middle">get_gpa</text>

  <circle cx="188" cy="562" r="14" fill="#a855f7" opacity="0.06"/>
  <circle cx="188" cy="562" r="8" fill="#0e0d1a" stroke="#a855f7" stroke-width="1.3" filter="url(#smcp-small-glow)"/>
  <text x="150" y="564" font-family="monospace" font-size="6" fill="#c084fc">assignments_due</text>

  <circle cx="208" cy="622" r="14" fill="#a855f7" opacity="0.06"/>
  <circle cx="208" cy="622" r="8" fill="#0e0d1a" stroke="#a855f7" stroke-width="1.3" filter="url(#smcp-small-glow)"/>
  <text x="145" y="624" font-family="monospace" font-size="6" fill="#c084fc">missing_assignments</text>

  <circle cx="298" cy="650" r="14" fill="#a855f7" opacity="0.06"/>
  <circle cx="298" cy="650" r="8" fill="#0e0d1a" stroke="#a855f7" stroke-width="1.3" filter="url(#smcp-small-glow)"/>
  <text x="298" y="668" font-family="monospace" font-size="6" fill="#c084fc" text-anchor="middle">ask_about_grades</text>

  <circle cx="398" cy="648" r="14" fill="#a855f7" opacity="0.06"/>
  <circle cx="398" cy="648" r="8" fill="#0e0d1a" stroke="#a855f7" stroke-width="1.3" filter="url(#smcp-small-glow)"/>
  <text x="398" y="666" font-family="monospace" font-size="6" fill="#c084fc" text-anchor="middle">get_attendance</text>

  <circle cx="456" cy="610" r="14" fill="#a855f7" opacity="0.06"/>
  <circle cx="456" cy="610" r="8" fill="#0e0d1a" stroke="#a855f7" stroke-width="1.3" filter="url(#smcp-small-glow)"/>
  <text x="456" y="628" font-family="monospace" font-size="6" fill="#c084fc" text-anchor="middle">get_messages</text>

  <!-- ══════════════════════════════════════════
       INFRASTRUCTURE NODES
  ══════════════════════════════════════════ -->

  <!-- .env Config -->
  <circle cx="980" cy="522" r="16" fill="#22d3ee" opacity="0.05"/>
  <circle cx="980" cy="522" r="10" fill="#060d14" stroke="#22d3ee" stroke-width="1.1" stroke-opacity="0.6" filter="url(#smcp-small-glow)"/>
  <text x="980" y="540" font-family="monospace" font-size="6" fill="#164a5a" text-anchor="middle">.env</text>

  <!-- npm Package -->
  <circle cx="938" cy="435" r="18" fill="#22d3ee" opacity="0.06"/>
  <circle cx="938" cy="435" r="12" fill="#060d14" stroke="#22d3ee" stroke-width="1.2" stroke-opacity="0.7" filter="url(#smcp-small-glow)"/>
  <text x="938" y="455" font-family="monospace" font-size="6" fill="#1e6070" text-anchor="middle">studentvue</text>
  <text x="938" y="463" font-family="monospace" font-size="6" fill="#1e6070" text-anchor="middle">npm pkg</text>

  <!-- SOAP Layer -->
  <circle cx="940" cy="255" r="24" fill="#22d3ee" opacity="0.08"/>
  <circle cx="940" cy="255" r="16" fill="#070e16" stroke="#22d3ee" stroke-width="1.4" filter="url(#smcp-small-glow)"/>
  <text x="940" y="251" font-family="monospace" font-size="6.5" fill="#22d3ee" text-anchor="middle">SOAP</text>
  <text x="940" y="262" font-family="monospace" font-size="5.5" fill="#1a7090" text-anchor="middle">XML</text>

  <!-- Synergy Server -->
  <circle cx="1080" cy="192" r="30" fill="#38bdf8" opacity="0.07"/>
  <circle cx="1080" cy="192" r="20" fill="#050c14" stroke="#38bdf8" stroke-width="1.5" filter="url(#smcp-node-glow)"/>
  <text x="1080" y="188" font-family="monospace" font-size="6.5" fill="#38bdf8" text-anchor="middle">Synergy</text>
  <text x="1080" y="199" font-family="monospace" font-size="5.5" fill="#1a6090" text-anchor="middle">edupoint.com</text>

  <!-- ══════════════════════════════════════════
       CATEGORY NODES (medium size)
  ══════════════════════════════════════════ -->

  <!-- Grade Analysis category node -->
  <circle cx="362" cy="130" r="35" fill="#6366f1" opacity="0.07"/>
  <circle cx="362" cy="130" r="25" fill="#6366f1" opacity="0.04"/>
  <circle cx="362" cy="130" r="20" fill="#0c0c22" stroke="#6366f1" stroke-width="1.6" filter="url(#smcp-node-glow)"/>
  <text x="362" y="126" font-family="monospace" font-size="6" fill="#818cf8" text-anchor="middle">Grade</text>
  <text x="362" y="136" font-family="monospace" font-size="6" fill="#818cf8" text-anchor="middle">Analysis</text>
  <text x="362" y="155" font-family="monospace" font-size="5.5" fill="#333368" text-anchor="middle">7 tools</text>

  <!-- Academic Info category node -->
  <circle cx="575" cy="178" r="30" fill="#7c3aed" opacity="0.07"/>
  <circle cx="575" cy="178" r="18" fill="#0c0c20" stroke="#7c3aed" stroke-width="1.5" filter="url(#smcp-node-glow)"/>
  <text x="575" y="174" font-family="monospace" font-size="6" fill="#a78bfa" text-anchor="middle">Academic</text>
  <text x="575" y="184" font-family="monospace" font-size="6" fill="#a78bfa" text-anchor="middle">Info</text>
  <text x="575" y="202" font-family="monospace" font-size="5.5" fill="#333368" text-anchor="middle">6 tools</text>

  <!-- Smart Insights category node -->
  <circle cx="370" cy="540" r="30" fill="#a855f7" opacity="0.07"/>
  <circle cx="370" cy="540" r="18" fill="#0d0c20" stroke="#a855f7" stroke-width="1.5" filter="url(#smcp-node-glow)"/>
  <text x="370" y="536" font-family="monospace" font-size="6" fill="#c084fc" text-anchor="middle">Smart</text>
  <text x="370" y="546" font-family="monospace" font-size="6" fill="#c084fc" text-anchor="middle">Insights</text>
  <text x="370" y="564" font-family="monospace" font-size="5.5" fill="#333368" text-anchor="middle">6 tools</text>

  <!-- StudentVue Client node -->
  <circle cx="792" cy="340" r="44" fill="#22d3ee" opacity="0.06"/>
  <circle cx="792" cy="340" r="32" fill="#22d3ee" opacity="0.03"/>
  <circle cx="792" cy="340" r="26" fill="#060d16" stroke="#22d3ee" stroke-width="1.8" filter="url(#smcp-node-glow)"/>
  <text x="792" y="333" font-family="monospace" font-size="7" fill="#22d3ee" text-anchor="middle">StudentVue</text>
  <text x="792" y="344" font-family="monospace" font-size="6.5" fill="#22d3ee" text-anchor="middle">Client</text>
  <text x="792" y="355" font-family="monospace" font-size="5.5" fill="#1a6070" text-anchor="middle">singleton</text>

  <!-- Protocol intermediate node -->
  <circle cx="241" cy="340" r="22" fill="#6366f1" opacity="0.08"/>
  <circle cx="241" cy="340" r="14" fill="#0a0a1e" stroke="#6366f1" stroke-width="1.3" filter="url(#smcp-small-glow)"/>
  <text x="241" y="336" font-family="monospace" font-size="5.5" fill="#6366f1" text-anchor="middle">JSON-RPC</text>
  <text x="241" y="346" font-family="monospace" font-size="5.5" fill="#6366f1" text-anchor="middle">2.0</text>
  <text x="241" y="362" font-family="monospace" font-size="5.5" fill="#2a2a55" text-anchor="middle">stdin/stdout</text>

  <!-- ══════════════════════════════════════════
       MAIN NODES (largest)
  ══════════════════════════════════════════ -->

  <!-- Claude Desktop -->
  <circle cx="90" cy="340" r="55" fill="#818cf8" opacity="0.06"/>
  <circle cx="90" cy="340" r="42" fill="#818cf8" opacity="0.03"/>
  <circle cx="90" cy="340" r="30" fill="#0c0c24" stroke="#6366f1" stroke-width="2" filter="url(#smcp-node-glow)"/>
  <text x="90" y="334" font-family="monospace" font-size="9" fill="#818cf8" text-anchor="middle">✦</text>
  <text x="90" y="348" font-family="Georgia,serif" font-size="9" fill="#a5b4fc" text-anchor="middle">Claude</text>
  <text x="90" y="381" font-family="monospace" font-size="6" fill="#333368" text-anchor="middle">claude-opus-4-6</text>
  <text x="90" y="392" font-family="monospace" font-size="6" fill="#222245" text-anchor="middle">MCP Client Host</text>

  <!-- McpServer (center, largest) -->
  <circle cx="450" cy="340" r="70" fill="#6366f1" opacity="0.08"/>
  <circle cx="450" cy="340" r="55" fill="#6366f1" opacity="0.04"/>
  <circle cx="450" cy="340" r="38" fill="#0c0c20" stroke="#6366f1" stroke-width="2.2" filter="url(#smcp-node-glow)"/>
  <circle cx="450" cy="340" r="30" fill="none" stroke="#6366f1" stroke-width="0.5" stroke-opacity="0.3"/>
  <text x="450" y="330" font-family="monospace" font-size="8" fill="#818cf8" text-anchor="middle">MCP</text>
  <text x="450" y="342" font-family="monospace" font-size="8" fill="#818cf8" text-anchor="middle">Server</text>
  <text x="450" y="354" font-family="monospace" font-size="6" fill="#4b4b90" text-anchor="middle">"school"</text>
  <text x="450" y="364" font-family="monospace" font-size="5.5" fill="#333368" text-anchor="middle">v1.0.0 · Node.js</text>
  <!-- Connection count badge -->
  <text x="450" y="385" font-family="monospace" font-size="5.5" fill="#222248" text-anchor="middle">19 tools registered</text>

  <!-- Edge labels -->
  <rect x="270" y="325" width="52" height="13" rx="3" fill="#0a0a20"/>
  <text x="296" y="335" font-family="monospace" font-size="5.5" fill="#444488" text-anchor="middle">tools/call</text>

  <rect x="590" y="325" width="65" height="13" rx="3" fill="#060d16"/>
  <text x="622" y="335" font-family="monospace" font-size="5.5" fill="#1a5a6a" text-anchor="middle">StudentVue.login()</text>

  <rect x="934" y="215" width="52" height="13" rx="3" fill="#060d16"/>
  <text x="960" y="225" font-family="monospace" font-size="5.5" fill="#1a5a6a" text-anchor="middle">SOAP/XML</text>

  <!-- Legend -->
  <rect x="1010" y="560" width="175" height="116" rx="4" fill="#08080f" stroke="#1e1e38" stroke-width="0.6"/>
  <text x="1097" y="576" font-family="monospace" font-size="6.5" fill="#222248" text-anchor="middle">Node Types</text>
  <circle cx="1030" cy="592" r="6" fill="#0c0c20" stroke="#6366f1" stroke-width="1.2"/>
  <text x="1045" y="596" font-family="monospace" font-size="6" fill="#444480">Grade Analysis (7)</text>
  <circle cx="1030" cy="610" r="6" fill="#0d0d1a" stroke="#7c3aed" stroke-width="1.2"/>
  <text x="1045" y="614" font-family="monospace" font-size="6" fill="#444480">Academic Info (6)</text>
  <circle cx="1030" cy="628" r="6" fill="#0e0d1a" stroke="#a855f7" stroke-width="1.2"/>
  <text x="1045" y="632" font-family="monospace" font-size="6" fill="#444480">Smart Insights (6)</text>
  <circle cx="1030" cy="646" r="6" fill="#06090f" stroke="#22d3ee" stroke-width="1.2"/>
  <text x="1045" y="650" font-family="monospace" font-size="6" fill="#444480">StudentVue Stack</text>
  <circle cx="1030" cy="664" r="6" fill="#0c0c20" stroke="#6366f1" stroke-width="2"/>
  <text x="1045" y="668" font-family="monospace" font-size="6" fill="#444480">MCP Server (hub)</text>

</svg>
