<svg xmlns="http://www.w3.org/2000/svg" viewBox="0 0 800 450" width="800" height="450">
  <!-- Background -->
  <rect width="800" height="450" fill="#0f0f0f"/>

  <!-- Top bar -->
  <rect width="800" height="44" fill="#1a1a1a"/>
  <text x="20" y="28" font-family="monospace" font-size="13" fill="#e0e0e0" font-weight="bold">CSV Stock Visualizer</text>
  <rect x="600" y="10" width="80" height="24" rx="3" fill="#2a2a2a" stroke="#333" stroke-width="1"/>
  <text x="640" y="27" font-family="monospace" font-size="11" fill="#888" text-anchor="middle">AAPL ▾</text>
  <rect x="700" y="10" width="80" height="24" rx="3" fill="#2a2a2a" stroke="#333" stroke-width="1"/>
  <text x="740" y="27" font-family="monospace" font-size="11" fill="#888" text-anchor="middle">1Y ▾</text>

  <!-- Chart area -->
  <rect x="16" y="56" width="568" height="270" fill="#141414" rx="2"/>

  <!-- Grid lines -->
  <line x1="16" y1="110" x2="584" y2="110" stroke="#1f1f1f" stroke-width="1"/>
  <line x1="16" y1="164" x2="584" y2="164" stroke="#1f1f1f" stroke-width="1"/>
  <line x1="16" y1="218" x2="584" y2="218" stroke="#1f1f1f" stroke-width="1"/>
  <line x1="16" y1="272" x2="584" y2="272" stroke="#1f1f1f" stroke-width="1"/>

  <!-- Y-axis labels -->
  <text x="590" y="114" font-family="monospace" font-size="10" fill="#555">195</text>
  <text x="590" y="168" font-family="monospace" font-size="10" fill="#555">180</text>
  <text x="590" y="222" font-family="monospace" font-size="10" fill="#555">165</text>
  <text x="590" y="276" font-family="monospace" font-size="10" fill="#555">150</text>

  <!-- Stock line path (smooth upward trend with realistic volatility) -->
  <defs>
    <linearGradient id="lineGrad" x1="0" y1="0" x2="0" y2="1">
      <stop offset="0%" stop-color="#4ade80" stop-opacity="0.25"/>
      <stop offset="100%" stop-color="#4ade80" stop-opacity="0"/>
    </linearGradient>
  </defs>

  <!-- Area fill under line -->
  <path d="M30,268 C60,262 90,258 120,248 C150,238 165,255 200,240 C230,228 255,235 280,220 C310,204 330,210 360,195 C385,183 410,188 440,170 C465,155 490,162 520,145 C545,132 560,128 570,120 L570,326 L30,326 Z"
        fill="url(#lineGrad)"/>

  <!-- Main line -->
  <path d="M30,268 C60,262 90,258 120,248 C150,238 165,255 200,240 C230,228 255,235 280,220 C310,204 330,210 360,195 C385,183 410,188 440,170 C465,155 490,162 520,145 C545,132 560,128 570,120"
        fill="none" stroke="#4ade80" stroke-width="2" stroke-linejoin="round"/>

  <!-- Current price dot -->
  <circle cx="570" cy="120" r="4" fill="#4ade80"/>
  <circle cx="570" cy="120" r="8" fill="none" stroke="#4ade80" stroke-opacity="0.4" stroke-width="1.5"/>

  <!-- X-axis date labels -->
  <text x="30" y="342" font-family="monospace" font-size="10" fill="#444" text-anchor="middle">Mar</text>
  <text x="140" y="342" font-family="monospace" font-size="10" fill="#444" text-anchor="middle">May</text>
  <text x="250" y="342" font-family="monospace" font-size="10" fill="#444" text-anchor="middle">Jul</text>
  <text x="360" y="342" font-family="monospace" font-size="10" fill="#444" text-anchor="middle">Sep</text>
  <text x="465" y="342" font-family="monospace" font-size="10" fill="#444" text-anchor="middle">Nov</text>
  <text x="570" y="342" font-family="monospace" font-size="10" fill="#444" text-anchor="middle">Jan</text>

  <!-- Volume bars at bottom -->
  <rect x="30" y="300" width="8" height="20" fill="#4ade80" opacity="0.3" rx="1"/>
  <rect x="55" y="308" width="8" height="12" fill="#4ade80" opacity="0.3" rx="1"/>
  <rect x="80" y="295" width="8" height="25" fill="#4ade80" opacity="0.3" rx="1"/>
  <rect x="105" y="305" width="8" height="15" fill="#ef4444" opacity="0.3" rx="1"/>
  <rect x="130" y="298" width="8" height="22" fill="#4ade80" opacity="0.3" rx="1"/>
  <rect x="155" y="310" width="8" height="10" fill="#ef4444" opacity="0.3" rx="1"/>
  <rect x="180" y="302" width="8" height="18" fill="#4ade80" opacity="0.3" rx="1"/>
  <rect x="205" y="306" width="8" height="14" fill="#4ade80" opacity="0.3" rx="1"/>
  <rect x="230" y="296" width="8" height="24" fill="#ef4444" opacity="0.3" rx="1"/>
  <rect x="255" y="303" width="8" height="17" fill="#4ade80" opacity="0.3" rx="1"/>
  <rect x="280" y="297" width="8" height="23" fill="#4ade80" opacity="0.3" rx="1"/>
  <rect x="305" y="309" width="8" height="11" fill="#ef4444" opacity="0.3" rx="1"/>
  <rect x="330" y="301" width="8" height="19" fill="#4ade80" opacity="0.3" rx="1"/>
  <rect x="355" y="293" width="8" height="27" fill="#4ade80" opacity="0.3" rx="1"/>
  <rect x="380" y="307" width="8" height="13" fill="#ef4444" opacity="0.3" rx="1"/>
  <rect x="405" y="299" width="8" height="21" fill="#4ade80" opacity="0.3" rx="1"/>
  <rect x="430" y="294" width="8" height="26" fill="#4ade80" opacity="0.3" rx="1"/>
  <rect x="455" y="304" width="8" height="16" fill="#ef4444" opacity="0.3" rx="1"/>
  <rect x="480" y="298" width="8" height="22" fill="#4ade80" opacity="0.3" rx="1"/>
  <rect x="505" y="291" width="8" height="29" fill="#4ade80" opacity="0.3" rx="1"/>
  <rect x="530" y="300" width="8" height="20" fill="#4ade80" opacity="0.3" rx="1"/>
  <rect x="555" y="289" width="8" height="31" fill="#4ade80" opacity="0.3" rx="1"/>

  <!-- Right panel - Stats -->
  <rect x="600" y="56" width="184" height="270" fill="#141414" rx="2"/>
  <text x="616" y="80" font-family="monospace" font-size="11" fill="#666" font-weight="bold">AAPL</text>
  <text x="616" y="98" font-family="monospace" font-size="22" fill="#e0e0e0" font-weight="bold">$189.42</text>
  <text x="616" y="116" font-family="monospace" font-size="11" fill="#4ade80">▲ +4.21 (2.27%)</text>

  <line x1="616" y1="128" x2="768" y2="128" stroke="#222" stroke-width="1"/>

  <text x="616" y="148" font-family="monospace" font-size="10" fill="#555">Open</text>
  <text x="616" y="162" font-family="monospace" font-size="11" fill="#aaa">185.89</text>

  <text x="700" y="148" font-family="monospace" font-size="10" fill="#555">High</text>
  <text x="700" y="162" font-family="monospace" font-size="11" fill="#aaa">190.54</text>

  <text x="616" y="182" font-family="monospace" font-size="10" fill="#555">Low</text>
  <text x="616" y="196" font-family="monospace" font-size="11" fill="#aaa">184.73</text>

  <text x="700" y="182" font-family="monospace" font-size="10" fill="#555">Close</text>
  <text x="700" y="196" font-family="monospace" font-size="11" fill="#aaa">189.42</text>

  <line x1="616" y1="208" x2="768" y2="208" stroke="#222" stroke-width="1"/>

  <text x="616" y="228" font-family="monospace" font-size="10" fill="#555">52W High</text>
  <text x="616" y="242" font-family="monospace" font-size="11" fill="#aaa">198.23</text>

  <text x="700" y="228" font-family="monospace" font-size="10" fill="#555">52W Low</text>
  <text x="700" y="242" font-family="monospace" font-size="11" fill="#aaa">142.81</text>

  <text x="616" y="262" font-family="monospace" font-size="10" fill="#555">Volume</text>
  <text x="616" y="276" font-family="monospace" font-size="11" fill="#aaa">68.4M</text>

  <text x="700" y="262" font-family="monospace" font-size="10" fill="#555">Avg Vol</text>
  <text x="700" y="276" font-family="monospace" font-size="11" fill="#aaa">55.1M</text>

  <!-- Bottom table -->
  <rect x="16" y="360" width="768" height="76" fill="#141414" rx="2"/>

  <!-- Table header -->
  <rect x="16" y="360" width="768" height="22" fill="#1a1a1a" rx="2"/>
  <text x="30" y="376" font-family="monospace" font-size="10" fill="#555">Date</text>
  <text x="160" y="376" font-family="monospace" font-size="10" fill="#555">Open</text>
  <text x="270" y="376" font-family="monospace" font-size="10" fill="#555">High</text>
  <text x="380" y="376" font-family="monospace" font-size="10" fill="#555">Low</text>
  <text x="480" y="376" font-family="monospace" font-size="10" fill="#555">Close</text>
  <text x="600" y="376" font-family="monospace" font-size="10" fill="#555">Volume</text>
  <text x="700" y="376" font-family="monospace" font-size="10" fill="#555">Change</text>

  <!-- Table row 1 -->
  <text x="30" y="398" font-family="monospace" font-size="10" fill="#888">2025-01-15</text>
  <text x="160" y="398" font-family="monospace" font-size="10" fill="#888">185.89</text>
  <text x="270" y="398" font-family="monospace" font-size="10" fill="#888">190.54</text>
  <text x="380" y="398" font-family="monospace" font-size="10" fill="#888">184.73</text>
  <text x="480" y="398" font-family="monospace" font-size="10" fill="#888">189.42</text>
  <text x="600" y="398" font-family="monospace" font-size="10" fill="#888">68.4M</text>
  <text x="700" y="398" font-family="monospace" font-size="10" fill="#4ade80">+2.27%</text>

  <!-- Table row 2 -->
  <text x="30" y="416" font-family="monospace" font-size="10" fill="#666">2025-01-14</text>
  <text x="160" y="416" font-family="monospace" font-size="10" fill="#666">183.10</text>
  <text x="270" y="416" font-family="monospace" font-size="10" fill="#666">186.22</text>
  <text x="380" y="416" font-family="monospace" font-size="10" fill="#666">182.55</text>
  <text x="480" y="416" font-family="monospace" font-size="10" fill="#666">185.21</text>
  <text x="600" y="416" font-family="monospace" font-size="10" fill="#666">52.1M</text>
  <text x="700" y="416" font-family="monospace" font-size="10" fill="#ef4444">-0.89%</text>
</svg>
