<svg xmlns="http://www.w3.org/2000/svg" viewBox="0 0 800 450" width="800" height="450">
  <rect width="800" height="450" fill="#0f0f0f"/>
  <!-- Top bar -->
  <rect width="800" height="40" fill="#1a1a1a"/>
  <circle cx="20" cy="20" r="6" fill="#333"/>
  <circle cx="40" cy="20" r="6" fill="#333"/>
  <circle cx="60" cy="20" r="6" fill="#333"/>
  <text x="400" y="26" font-family="monospace" font-size="12" fill="#555" text-anchor="middle">task_manager.py</text>

  <!-- Main panel -->
  <rect x="30" y="56" width="740" height="378" fill="#111" rx="2"/>

  <!-- Sidebar -->
  <rect x="30" y="56" width="180" height="378" fill="#141414" rx="2"/>
  <text x="50" y="88" font-family="monospace" font-size="13" fill="#e0e0e0" font-weight="bold">Cool To-Do</text>
  <line x1="30" y1="98" x2="210" y2="98" stroke="#222" stroke-width="1"/>

  <!-- Sidebar items -->
  <rect x="36" y="106" width="168" height="28" rx="2" fill="#4ade80" opacity="0.12"/>
  <rect x="48" y="114" width="8" height="12" rx="1" fill="#4ade80" opacity="0.8"/>
  <text x="64" y="125" font-family="monospace" font-size="11" fill="#4ade80">All Tasks</text>
  <text x="185" y="125" font-family="monospace" font-size="10" fill="#4ade80" text-anchor="end">8</text>

  <rect x="48" y="148" width="8" height="12" rx="1" fill="#555"/>
  <text x="64" y="159" font-family="monospace" font-size="11" fill="#666">In Progress</text>
  <text x="185" y="159" font-family="monospace" font-size="10" fill="#555" text-anchor="end">3</text>

  <rect x="48" y="182" width="8" height="12" rx="1" fill="#555"/>
  <text x="64" y="193" font-family="monospace" font-size="11" fill="#666">Completed</text>
  <text x="185" y="193" font-family="monospace" font-size="10" fill="#555" text-anchor="end">5</text>

  <line x1="36" y1="216" x2="198" y2="216" stroke="#222" stroke-width="1"/>
  <text x="50" y="236" font-family="monospace" font-size="10" fill="#444">PROJECTS</text>

  <rect x="48" y="246" width="10" height="10" rx="1" fill="#818cf8" opacity="0.7"/>
  <text x="66" y="256" font-family="monospace" font-size="11" fill="#666">School</text>

  <rect x="48" y="268" width="10" height="10" rx="1" fill="#fb923c" opacity="0.7"/>
  <text x="66" y="278" font-family="monospace" font-size="11" fill="#666">Personal</text>

  <rect x="48" y="290" width="10" height="10" rx="1" fill="#34d399" opacity="0.7"/>
  <text x="66" y="300" font-family="monospace" font-size="11" fill="#666">Coding</text>

  <!-- Progress bar at bottom of sidebar -->
  <text x="50" y="390" font-family="monospace" font-size="10" fill="#555">Progress</text>
  <rect x="50" y="398" width="140" height="6" rx="3" fill="#222"/>
  <rect x="50" y="398" width="87" height="6" rx="3" fill="#4ade80" opacity="0.7"/>
  <text x="50" y="420" font-family="monospace" font-size="10" fill="#4ade80">62% complete</text>

  <!-- Main content area -->
  <!-- Input bar -->
  <rect x="220" y="64" width="536" height="36" rx="3" fill="#1a1a1a" stroke="#2a2a2a" stroke-width="1"/>
  <text x="236" y="87" font-family="monospace" font-size="12" fill="#333">Add a new task...</text>
  <rect x="720" y="68" width="28" height="28" rx="2" fill="#4ade80" opacity="0.9"/>
  <text x="734" y="87" font-family="monospace" font-size="16" fill="#0f0f0f" text-anchor="middle" font-weight="bold">+</text>

  <!-- Task list header -->
  <text x="230" y="124" font-family="monospace" font-size="11" fill="#444">TASK</text>
  <text x="590" y="124" font-family="monospace" font-size="11" fill="#444">STATUS</text>
  <text x="700" y="124" font-family="monospace" font-size="11" fill="#444">DUE</text>
  <line x1="220" y1="130" x2="756" y2="130" stroke="#1e1e1e" stroke-width="1"/>

  <!-- Task row 1 - completed -->
  <rect x="220" y="136" width="536" height="42" rx="1" fill="#141414"/>
  <rect x="230" y="151" width="14" height="14" rx="2" fill="none" stroke="#4ade80" stroke-width="1.5"/>
  <line x1="233" y1="158" x2="237" y2="162" stroke="#4ade80" stroke-width="1.5"/>
  <line x1="237" y1="162" x2="243" y2="154" stroke="#4ade80" stroke-width="1.5"/>
  <text x="256" y="162" font-family="monospace" font-size="12" fill="#555" text-decoration="line-through">Finish Python assignment</text>
  <rect x="590" y="148" width="64" height="18" rx="9" fill="#4ade80" opacity="0.15"/>
  <text x="622" y="161" font-family="monospace" font-size="10" fill="#4ade80" text-anchor="middle">done</text>
  <text x="700" y="162" font-family="monospace" font-size="10" fill="#555">Jan 10</text>

  <!-- Task row 2 - in progress -->
  <rect x="220" y="180" width="536" height="42" rx="1" fill="#1a1a1a"/>
  <rect x="230" y="195" width="14" height="14" rx="2" fill="none" stroke="#555" stroke-width="1.5"/>
  <text x="256" y="206" font-family="monospace" font-size="12" fill="#e0e0e0">Build portfolio website</text>
  <rect x="590" y="192" width="64" height="18" rx="9" fill="#818cf8" opacity="0.15"/>
  <text x="622" y="205" font-family="monospace" font-size="10" fill="#818cf8" text-anchor="middle">active</text>
  <text x="700" y="206" font-family="monospace" font-size="10" fill="#888">Jan 15</text>

  <!-- Task row 3 - completed -->
  <rect x="220" y="224" width="536" height="42" rx="1" fill="#141414"/>
  <rect x="230" y="239" width="14" height="14" rx="2" fill="none" stroke="#4ade80" stroke-width="1.5"/>
  <line x1="233" y1="246" x2="237" y2="250" stroke="#4ade80" stroke-width="1.5"/>
  <line x1="237" y1="250" x2="243" y2="242" stroke="#4ade80" stroke-width="1.5"/>
  <text x="256" y="250" font-family="monospace" font-size="12" fill="#555" text-decoration="line-through">Study for calc exam</text>
  <rect x="590" y="236" width="64" height="18" rx="9" fill="#4ade80" opacity="0.15"/>
  <text x="622" y="249" font-family="monospace" font-size="10" fill="#4ade80" text-anchor="middle">done</text>
  <text x="700" y="250" font-family="monospace" font-size="10" fill="#555">Jan 12</text>

  <!-- Task row 4 - in progress -->
  <rect x="220" y="268" width="536" height="42" rx="1" fill="#1a1a1a"/>
  <rect x="230" y="283" width="14" height="14" rx="2" fill="none" stroke="#555" stroke-width="1.5"/>
  <text x="256" y="294" font-family="monospace" font-size="12" fill="#e0e0e0">Read chapter 5 — algorithms</text>
  <rect x="590" y="280" width="64" height="18" rx="9" fill="#fb923c" opacity="0.15"/>
  <text x="622" y="293" font-family="monospace" font-size="10" fill="#fb923c" text-anchor="middle">overdue</text>
  <text x="700" y="294" font-family="monospace" font-size="10" fill="#fb923c">Jan 8</text>

  <!-- Task row 5 - pending -->
  <rect x="220" y="312" width="536" height="42" rx="1" fill="#141414"/>
  <rect x="230" y="327" width="14" height="14" rx="2" fill="none" stroke="#555" stroke-width="1.5"/>
  <text x="256" y="338" font-family="monospace" font-size="12" fill="#aaa">Submit lab report</text>
  <rect x="590" y="324" width="64" height="18" rx="9" fill="#2a2a2a"/>
  <text x="622" y="337" font-family="monospace" font-size="10" fill="#555" text-anchor="middle">pending</text>
  <text x="700" y="338" font-family="monospace" font-size="10" fill="#666">Jan 20</text>

  <!-- Task row 6 - in progress -->
  <rect x="220" y="356" width="536" height="42" rx="1" fill="#1a1a1a"/>
  <rect x="230" y="371" width="14" height="14" rx="2" fill="none" stroke="#555" stroke-width="1.5"/>
  <text x="256" y="382" font-family="monospace" font-size="12" fill="#e0e0e0">Prepare presentation slides</text>
  <rect x="590" y="368" width="64" height="18" rx="9" fill="#818cf8" opacity="0.15"/>
  <text x="622" y="381" font-family="monospace" font-size="10" fill="#818cf8" text-anchor="middle">active</text>
  <text x="700" y="382" font-family="monospace" font-size="10" fill="#888">Jan 18</text>
</svg>
